<?xml version="1.0" standalone="no"?>
<!DOCTYPE svg PUBLIC "-//W3C//DTD SVG 20010904//EN"
 "http://www.w3.org/TR/2001/REC-SVG-20010904/DTD/svg10.dtd">
<svg version="1.0" xmlns="http://www.w3.org/2000/svg"
 width="737.000000pt" height="163.000000pt" viewBox="0 0 737.000000 163.000000"
 preserveAspectRatio="xMidYMid meet">

<g transform="translate(0.000000,163.000000) scale(0.100000,-0.100000)"
fill="#000000" stroke="none">
<path d="M2961 1386 c-65 -36 -66 -151 -2 -186 49 -25 128 -2 149 45 22 47 15
84 -22 121 -37 37 -81 44 -125 20z"/>
<path d="M97 1346 l-27 -25 0 -431 0 -430 163 0 c90 0 190 5 222 11 161 30
244 128 233 276 -6 77 -32 130 -85 166 l-42 30 38 42 c102 110 69 285 -66 351
-56 28 -64 29 -233 32 l-175 4 -28 -26z m359 -149 c31 -37 39 -85 21 -130 -23
-53 -60 -68 -160 -65 l-82 3 -3 86 c-2 75 0 89 19 113 21 27 25 28 101 24 72
-3 82 -6 104 -31z m-13 -341 c46 -19 69 -49 74 -99 7 -59 -18 -110 -63 -132
-25 -12 -57 -15 -126 -13 l-93 3 0 106 c0 138 8 149 107 149 38 0 83 -6 101
-14z"/>
<path d="M2260 915 l0 -455 90 0 90 0 0 134 c0 75 4 137 10 141 5 3 19 3 32 0
17 -5 40 -38 88 -128 43 -80 73 -126 90 -134 23 -12 200 -19 200 -8 0 2 -25
45 -55 95 -31 51 -71 122 -90 158 -19 37 -40 74 -46 82 -9 13 9 45 90 162 56
81 101 149 101 152 0 3 -45 6 -100 6 l-101 0 -71 -110 c-56 -86 -77 -110 -99
-115 -16 -4 -33 -4 -39 0 -6 4 -10 85 -10 221 0 258 2 254 -110 254 l-70 0 0
-455z"/>
<path d="M983 1111 c-148 -51 -227 -165 -226 -326 2 -138 63 -239 181 -297 62
-31 74 -33 162 -32 114 0 165 19 239 89 72 68 96 128 96 245 0 84 -3 102 -28
152 -16 33 -49 76 -78 102 -88 79 -232 107 -346 67z m187 -154 c60 -31 90 -89
90 -171 0 -83 -29 -133 -93 -165 -178 -88 -324 170 -176 311 56 53 112 61 179
25z"/>
<path d="M1747 1120 c-96 -25 -173 -88 -216 -179 -22 -48 -26 -69 -26 -151 0
-82 4 -103 26 -151 34 -71 87 -125 158 -158 48 -22 70 -26 151 -26 82 0 103 4
151 27 69 32 127 87 159 153 22 44 25 64 25 155 0 91 -3 111 -25 155 -54 110
-156 174 -288 181 -42 2 -94 -1 -115 -6z m159 -159 c77 -35 116 -128 94 -221
-15 -65 -48 -104 -105 -125 -113 -43 -218 42 -218 176 0 77 33 136 93 167 54
27 82 27 136 3z"/>
<path d="M3525 1118 c-16 -6 -47 -23 -67 -39 -40 -32 -58 -36 -58 -16 0 29
-39 49 -105 54 l-65 6 0 -332 0 -331 89 0 89 0 4 188 c3 175 4 190 27 228 28
50 84 84 138 84 82 0 92 -31 93 -282 l0 -177 26 -20 c21 -16 41 -21 91 -21
l65 0 -4 253 c-3 231 -5 256 -24 297 -25 54 -71 95 -122 110 -46 12 -137 12
-177 -2z"/>
<path d="M4107 1115 c-198 -73 -251 -399 -91 -559 90 -90 221 -104 358 -38 5
3 6 -14 3 -39 -11 -85 -99 -131 -211 -109 -137 27 -133 28 -156 -26 -36 -82
-34 -86 45 -113 55 -19 90 -24 165 -24 153 0 252 50 308 157 l27 51 3 353 3
352 -55 0 c-43 0 -61 -5 -82 -23 l-26 -23 -55 28 c-46 23 -68 28 -127 27 -39
0 -88 -7 -109 -14z m212 -160 c82 -42 86 -248 7 -300 -39 -26 -95 -29 -136 -8
-95 49 -110 234 -25 301 33 26 111 30 154 7z"/>
<path d="M5238 1123 c6 -2 18 -2 25 0 6 3 1 5 -13 5 -14 0 -19 -2 -12 -5z"/>
<path d="M5878 1123 c12 -2 30 -2 40 0 9 3 -1 5 -23 4 -22 0 -30 -2 -17 -4z"/>
<path d="M6668 1123 c6 -2 18 -2 25 0 6 3 1 5 -13 5 -14 0 -19 -2 -12 -5z"/>
<path d="M7078 1123 c6 -2 18 -2 25 0 6 3 1 5 -13 5 -14 0 -19 -2 -12 -5z"/>
<path d="M2930 790 l0 -330 90 0 90 0 0 301 c0 177 -4 308 -10 319 -13 24 -62
40 -121 40 l-49 0 0 -330z"/>
<path d="M5168 1113 c7 -3 16 -2 19 1 4 3 -2 6 -13 5 -11 0 -14 -3 -6 -6z"/>
<path d="M5318 1113 c7 -3 16 -2 19 1 4 3 -2 6 -13 5 -11 0 -14 -3 -6 -6z"/>
<path d="M5808 1113 c7 -3 16 -2 19 1 4 3 -2 6 -13 5 -11 0 -14 -3 -6 -6z"/>
<path d="M5968 1113 c7 -3 16 -2 19 1 4 3 -2 6 -13 5 -11 0 -14 -3 -6 -6z"/>
<path d="M7018 1113 c7 -3 16 -2 19 1 4 3 -2 6 -13 5 -11 0 -14 -3 -6 -6z"/>
<path d="M7148 1113 c7 -3 16 -2 19 1 4 3 -2 6 -13 5 -11 0 -14 -3 -6 -6z"/>
<path d="M6398 1103 c6 -2 18 -2 25 0 6 3 1 5 -13 5 -14 0 -19 -2 -12 -5z"/>
<path d="M6440 1096 c0 -2 8 -10 18 -17 15 -13 16 -12 3 4 -13 16 -21 21 -21
13z"/>
<path d="M5483 950 c0 -30 2 -43 4 -27 2 15 2 39 0 55 -2 15 -4 2 -4 -28z"/>
<path d="M5228 983 c12 -2 32 -2 45 0 12 2 2 4 -23 4 -25 0 -35 -2 -22 -4z"/>
<path d="M5878 983 c6 -2 18 -2 25 0 6 3 1 5 -13 5 -14 0 -19 -2 -12 -5z"/>
<path d="M7281 974 c0 -11 3 -14 6 -6 3 7 2 16 -1 19 -3 4 -6 -2 -5 -13z"/>
<path d="M6613 973 c9 -2 25 -2 35 0 9 3 1 5 -18 5 -19 0 -27 -2 -17 -5z"/>
<path d="M7033 973 c9 -2 23 -2 30 0 6 3 -1 5 -18 5 -16 0 -22 -2 -12 -5z"/>
<path d="M7290 706 l0 -235 -47 -4 -48 -3 53 -2 52 -2 0 240 c0 132 -2 240 -5
240 -3 0 -5 -106 -5 -234z"/>
<path d="M6722 683 l-2 -223 88 2 87 2 -82 3 -83 4 -3 217 -2 217 -3 -222z"/>
<path d="M7134 710 c0 -107 2 -151 3 -97 2 53 2 141 0 195 -1 53 -3 9 -3 -98z"/>
<path d="M5561 864 c0 -11 3 -14 6 -6 3 7 2 16 -1 19 -3 4 -6 -2 -5 -13z"/>
<path d="M6222 860 c0 -14 2 -19 5 -12 2 6 2 18 0 25 -3 6 -5 1 -5 -13z"/>
<path d="M4903 785 c0 -38 2 -53 4 -32 2 20 2 52 0 70 -2 17 -4 1 -4 -38z"/>
<path d="M5723 790 c0 -30 2 -43 4 -27 2 15 2 39 0 55 -2 15 -4 2 -4 -28z"/>
<path d="M6063 790 c0 -30 2 -43 4 -27 2 15 2 39 0 55 -2 15 -4 2 -4 -28z"/>
<path d="M5063 790 c0 -25 2 -35 4 -22 2 12 2 32 0 45 -2 12 -4 2 -4 -23z"/>
<path d="M6482 810 c0 -14 2 -19 5 -12 2 6 2 18 0 25 -3 6 -5 1 -5 -13z"/>
<path d="M6891 814 c0 -11 3 -14 6 -6 3 7 2 16 -1 19 -3 4 -6 -2 -5 -13z"/>
<path d="M6884 630 c0 -85 2 -120 3 -77 2 42 2 112 0 155 -1 42 -3 7 -3 -78z"/>
<path d="M6222 720 c0 -14 2 -19 5 -12 2 6 2 18 0 25 -3 6 -5 1 -5 -13z"/>
<path d="M5561 714 c0 -11 3 -14 6 -6 3 7 2 16 -1 19 -3 4 -6 -2 -5 -13z"/>
<path d="M4911 694 c0 -11 3 -14 6 -6 3 7 2 16 -1 19 -3 4 -6 -2 -5 -13z"/>
<path d="M6314 595 c0 -66 1 -92 3 -57 2 34 2 88 0 120 -2 31 -3 3 -3 -63z"/>
<path d="M5238 593 c12 -2 32 -2 45 0 12 2 2 4 -23 4 -25 0 -35 -2 -22 -4z"/>
<path d="M5878 593 c6 -2 18 -2 25 0 6 3 1 5 -13 5 -14 0 -19 -2 -12 -5z"/>
<path d="M5338 463 c7 -3 16 -2 19 1 4 3 -2 6 -13 5 -11 0 -14 -3 -6 -6z"/>
<path d="M5808 463 c7 -3 16 -2 19 1 4 3 -2 6 -13 5 -11 0 -14 -3 -6 -6z"/>
<path d="M5968 463 c7 -3 16 -2 19 1 4 3 -2 6 -13 5 -11 0 -14 -3 -6 -6z"/>
<path d="M6353 463 c26 -2 67 -2 90 0 23 2 2 3 -48 3 -49 0 -68 -1 -42 -3z"/>
<path d="M5183 453 c9 -2 23 -2 30 0 6 3 -1 5 -18 5 -16 0 -22 -2 -12 -5z"/>
<path d="M5253 453 c15 -2 37 -2 50 0 12 2 0 4 -28 4 -27 0 -38 -2 -22 -4z"/>
<path d="M5873 453 c15 -2 37 -2 50 0 12 2 0 4 -28 4 -27 0 -38 -2 -22 -4z"/>
</g>
</svg>
