<?xml version="1.0" standalone="no"?>
<!DOCTYPE svg PUBLIC "-//W3C//DTD SVG 20010904//EN"
 "http://www.w3.org/TR/2001/REC-SVG-20010904/DTD/svg10.dtd">
<svg version="1.0" xmlns="http://www.w3.org/2000/svg"
 width="462.000000pt" height="144.000000pt" viewBox="0 0 462.000000 144.000000"
 preserveAspectRatio="xMidYMid meet">

<g transform="translate(0.000000,144.000000) scale(0.100000,-0.100000)"
fill="#000000" stroke="none">
<path d="M592 1427 c-19 -6 -56 -31 -84 -56 -46 -41 -66 -76 -238 -426 -256
-518 -265 -540 -265 -640 0 -93 24 -154 85 -215 140 -140 366 -109 539 73 l34
36 66 -60 c165 -150 348 -179 483 -76 92 71 141 194 120 303 -14 66 -115 287
-306 669 -118 235 -149 288 -191 330 -70 70 -152 91 -243 62z m176 -121 c29
-27 69 -97 174 -308 179 -357 286 -590 298 -644 15 -68 -4 -138 -52 -190 -103
-112 -247 -95 -400 46 l-60 55 42 55 c23 30 62 97 87 148 42 82 47 101 51 175
6 119 -31 192 -122 240 -58 30 -174 31 -232 0 -94 -50 -146 -158 -126 -263 16
-89 50 -166 113 -260 32 -48 59 -93 59 -98 0 -20 -116 -113 -177 -144 -55 -27
-70 -30 -127 -26 -86 5 -139 41 -179 118 -53 102 -42 134 239 701 83 168 163
324 178 348 36 57 78 81 143 81 46 0 58 -4 91 -34z m-20 -506 c104 -64 94
-197 -30 -387 -22 -35 -44 -63 -49 -63 -15 0 -106 147 -129 208 -27 72 -25
169 5 203 54 60 140 77 203 39z"/>
<path d="M2287 1159 c-25 -15 -47 -70 -40 -100 8 -34 40 -66 71 -72 34 -7 87
15 101 41 44 82 -52 177 -132 131z"/>
<path d="M2880 770 l0 -400 65 0 c59 0 65 2 65 21 l0 20 26 -20 c86 -68 238
-42 323 56 126 143 79 380 -90 453 -71 30 -178 26 -227 -8 l-32 -23 0 150 0
151 -65 0 -65 0 0 -400z m346 -1 c83 -50 86 -198 7 -254 -55 -39 -144 -36
-197 6 -25 20 -26 25 -26 118 0 110 6 122 77 146 45 15 96 9 139 -16z"/>
<path d="M4060 770 l0 -400 64 0 c47 0 65 4 70 15 4 12 11 11 43 -8 29 -17 53
-22 103 -21 112 0 200 59 248 163 21 46 24 63 20 135 -5 88 -18 123 -71 182
-68 79 -218 111 -295 64 -18 -11 -35 -20 -37 -20 -3 0 -5 65 -5 145 l0 145
-70 0 -70 0 0 -400z m353 -5 c84 -55 78 -206 -10 -258 -43 -25 -123 -25 -165
0 l-33 19 -3 111 -3 110 28 18 c55 36 131 36 186 0z"/>
<path d="M1790 899 c-102 -46 -151 -123 -158 -245 -4 -71 -1 -89 20 -136 49
-105 133 -161 248 -162 50 -1 74 4 103 21 32 19 39 20 43 8 5 -11 23 -15 70
-15 l64 0 0 270 0 270 -64 0 c-48 0 -65 -4 -70 -15 -5 -14 -11 -13 -45 5 -54
27 -150 27 -211 -1z m217 -130 l34 -21 -3 -110 c-3 -108 -4 -111 -31 -132 -20
-14 -42 -20 -80 -20 -101 0 -157 55 -157 155 0 63 19 97 74 130 43 26 119 25
163 -2z"/>
<path d="M2700 913 c-8 -3 -27 -14 -41 -24 -26 -18 -27 -18 -32 1 -4 17 -14
20 -71 20 l-66 0 0 -270 0 -270 70 0 70 0 2 193 3 192 45 23 c35 18 55 22 93
18 l47 -5 0 64 0 65 -52 -1 c-29 0 -60 -3 -68 -6z"/>
<path d="M3680 909 c-13 -6 -32 -17 -41 -25 -15 -13 -17 -13 -22 6 -4 17 -13
20 -66 20 l-61 0 0 -270 0 -270 70 0 70 0 2 191 3 192 26 19 c37 28 99 34 137
14 44 -23 52 -62 52 -253 l0 -163 71 0 71 0 -4 204 -3 203 -30 48 c-41 67 -97
95 -184 94 -36 0 -77 -5 -91 -10z"/>
<path d="M2270 640 l0 -270 70 0 70 0 0 270 0 270 -70 0 -70 0 0 -270z"/>
</g>
</svg>
